<svg version="1.1" id="Layer_1" xmlns="http://www.w3.org/2000/svg" xmlns:xlink="http://www.w3.org/1999/xlink" x="0px" y="0px"
	 width="100%" viewBox="0 0 600 315" enable-background="new 0 0 600 315" xml:space="preserve">
<path fill="#000000" opacity="1.000000" stroke="none" 
	d="
M144.000000,316.000000 
	C96.368050,316.000000 48.736103,316.000000 1.052078,316.000000 
	C1.052078,211.111221 1.052078,106.222404 1.052078,1.000000 
	C48.353706,1.000000 95.708191,1.000000 143.529419,1.244928 
	C143.996170,1.489855 144.073395,1.973600 144.044678,2.442201 
	C144.030655,106.945068 144.045349,210.979340 144.022614,315.258850 
	C143.985168,315.504089 144.000000,316.000000 144.000000,316.000000 
z"/>
<path fill="#000000" opacity="1.000000" stroke="none" 
	d="
M459.000000,1.000000 
	C506.298737,1.000000 553.597473,1.000000 600.948120,1.000000 
	C600.948120,105.888687 600.948120,210.777420 600.948120,316.000000 
	C553.979614,316.000000 506.958466,316.000000 459.476990,315.532166 
	C459.011108,210.376236 459.005554,105.688118 459.000000,1.000000 
z"/>
<path fill="#264274" opacity="1.000000" stroke="none" 
	d="
M458.666656,1.000000 
	C459.005554,105.688118 459.011108,210.376236 459.008331,315.532166 
	C459.000000,316.000000 458.500000,316.000000 458.221344,315.697754 
	C457.919708,315.194458 457.896759,314.993378 457.899780,314.342377 
	C457.934326,211.475128 457.947052,109.057770 457.912140,6.640429 
	C457.911621,5.068609 457.322205,3.496989 457.005371,1.693959 
	C457.003113,1.462643 457.000000,1.000000 457.000000,1.000000 
	C457.444427,1.000000 457.888885,1.000000 458.666656,1.000000 
z"/>
<path fill="#203862" opacity="1.000000" stroke="none" 
	d="
M457.873779,314.792236 
	C457.896759,314.993378 457.919708,315.194458 457.971344,315.697754 
	C353.645233,316.000000 249.290466,316.000000 144.467850,316.000000 
	C144.000000,316.000000 143.985168,315.504089 144.293610,315.232666 
	C144.782974,314.944366 144.963928,314.927460 145.600311,314.940369 
	C248.666061,314.977844 351.276428,314.986298 453.886780,314.984833 
	C455.215790,314.984833 456.544769,314.859222 457.873779,314.792236 
z"/>
<path fill="#243F6E" opacity="1.000000" stroke="none" 
	d="
M456.532166,1.000000 
	C457.000000,1.000000 457.003113,1.462643 456.537476,1.736094 
	C380.593567,2.018446 305.115356,2.020236 229.637115,2.039929 
	C201.479431,2.047276 173.321762,2.096426 144.891342,2.088790 
	C144.436859,2.025243 144.255127,1.999422 144.073395,1.973600 
	C144.073395,1.973600 143.996170,1.489855 143.998077,1.244928 
	C248.021439,1.000000 352.042877,1.000000 456.532166,1.000000 
z"/>
<path fill="#1A2E50" opacity="1.000000" stroke="none" 
	d="
M144.044678,2.442201 
	C144.255127,1.999422 144.436859,2.025243 144.835815,2.543432 
	C145.036057,106.329857 145.018829,209.623917 145.008011,312.917969 
	C145.007950,313.582184 145.097305,314.246368 145.144897,314.910583 
	C144.963928,314.927460 144.782974,314.944366 144.331039,314.987427 
	C144.045349,210.979340 144.030655,106.945068 144.044678,2.442201 
z"/>
<path fill="#030303" opacity="1.000000" stroke="none" 
	d="
M145.600311,314.940369 
	C145.097305,314.246368 145.007950,313.582184 145.008011,312.917969 
	C145.018829,209.623917 145.036057,106.329857 145.108551,2.581157 
	C173.321762,2.096426 201.479431,2.047276 229.637115,2.039929 
	C305.115356,2.020236 380.593567,2.018446 456.539734,1.967410 
	C457.322205,3.496989 457.911621,5.068609 457.912140,6.640429 
	C457.947052,109.057770 457.934326,211.475128 457.899780,314.342346 
	C456.544769,314.859222 455.215790,314.984833 453.886780,314.984833 
	C351.276428,314.986298 248.666061,314.977844 145.600311,314.940369 
M238.992371,157.322922 
	C238.444092,157.498840 237.895798,157.674759 237.253769,157.789597 
	C237.253769,157.789597 237.213882,157.754929 236.497101,157.062943 
	C211.430527,156.491455 186.363953,155.919983 161.356873,155.349869 
	C161.356873,160.315979 161.356873,164.579575 161.356873,170.064697 
	C173.673294,170.064697 185.617950,170.030090 197.562271,170.076431 
	C206.037628,170.109314 206.258698,170.232941 208.863419,162.534317 
	C210.075073,158.953094 212.031296,158.120224 215.476135,158.302200 
	C222.286194,158.661911 229.115601,158.655609 236.656204,159.086365 
	C237.476654,158.747238 238.297104,158.408096 238.992371,157.322922 
M390.819244,160.899170 
	C407.193573,160.899170 423.567932,160.899170 439.752502,160.899170 
	C439.752502,156.835968 439.752502,152.584061 439.752502,147.227112 
	C428.541870,147.227112 417.758789,147.377136 406.981750,147.186737 
	C395.179230,146.978241 395.181641,146.841232 390.183289,158.537918 
	C380.784363,158.537918 371.385437,158.537918 361.986511,158.537918 
	C361.992615,159.275894 361.998749,160.013870 362.004852,160.751846 
	C371.338806,160.751846 380.672729,160.751846 390.819244,160.899170 
M215.986237,111.578926 
	C203.622482,104.759979 191.258728,97.941025 178.496933,90.902542 
	C176.699799,94.566566 175.066162,97.897217 173.332428,101.431969 
	C191.764771,111.588837 209.643082,121.440422 227.808945,131.450455 
	C230.416824,128.427567 232.855637,125.600662 235.607605,122.410759 
	C229.681900,119.136253 223.158783,115.531616 215.986237,111.578926 
M380.720245,189.843384 
	C378.397308,188.562408 376.074341,187.281448 373.737885,185.993011 
	C370.636993,188.836227 367.682922,191.544861 364.620026,194.353241 
	C384.010834,205.027237 403.197632,215.588928 422.740204,226.346481 
	C424.540497,222.715973 426.135651,219.499176 427.931885,215.876892 
	C412.188080,207.181595 396.782806,198.673264 380.720245,189.843384 
M391.706665,228.797623 
	C380.973206,218.889114 370.239716,208.980606 359.591125,199.150436 
	C356.285095,201.168777 353.324463,202.976242 350.182495,204.894409 
	C367.698944,221.054825 385.241486,237.239349 403.030304,253.651062 
	C405.526611,250.634705 407.593018,248.137787 409.785706,245.488266 
	C403.710388,239.873489 397.973724,234.571747 391.706665,228.797623 
M229.545456,106.949959 
	C233.654770,110.737007 237.764069,114.524048 241.798447,118.242043 
	C244.902069,116.125252 247.496429,114.355789 250.761612,112.128807 
	C233.232285,95.942314 215.873703,79.913490 198.263062,63.651917 
	C195.800507,66.544907 193.696228,69.016998 191.391647,71.724411 
	C204.149933,83.502647 216.587921,94.985176 229.545456,106.949959 
M435.865845,193.248550 
	C436.606445,189.865021 437.347015,186.481491 438.180084,182.675461 
	C421.216309,178.100006 404.589081,173.559631 387.901855,169.251877 
	C386.893402,168.991516 385.086853,170.315445 384.207458,171.367035 
	C382.195007,173.773483 380.526917,176.467911 378.533600,179.309692 
	C379.199463,179.632767 380.292847,180.389282 381.502319,180.716095 
	C398.501617,185.309021 415.511993,189.861206 432.540680,194.343719 
	C433.468719,194.587997 434.581116,194.131943 435.865845,193.248550 
M165.121414,124.871002 
	C164.474304,128.056625 163.827194,131.242233 163.138031,134.634888 
	C179.506393,139.038589 195.401733,143.178574 211.196793,147.671158 
	C214.660614,148.656372 216.348755,147.869507 217.843704,144.844681 
	C219.022827,142.458847 220.730133,140.334030 222.218781,138.069077 
	C221.441620,137.653641 220.232651,136.694870 218.864258,136.323486 
	C202.195236,131.799286 185.511719,127.327042 168.794067,122.987320 
	C167.799713,122.729195 166.482849,123.713402 165.121414,124.871002 
M220.598618,44.318760 
	C219.293427,45.319546 217.988235,46.320328 216.357849,47.570465 
	C229.910629,68.083000 243.342117,88.411964 256.808960,108.794441 
	C260.003082,107.285774 262.615509,106.051865 265.441864,104.716911 
	C251.988876,84.329895 238.843796,64.488411 225.819794,44.567776 
	C224.276154,42.206726 222.989136,42.244076 220.598618,44.318760 
M360.583466,232.869141 
	C355.258362,224.835892 349.933258,216.802643 344.448395,208.528397 
	C341.512482,209.870926 338.832611,211.096390 335.755035,212.503708 
	C349.659912,233.544647 363.397156,254.331924 377.279114,275.338165 
	C380.073212,273.273834 382.440033,271.525116 384.887177,269.717102 
	C376.749756,257.387848 368.860077,245.433929 360.583466,232.869141 
M386.429016,139.807358 
	C403.106018,136.044769 419.783051,132.282181 437.015472,128.394287 
	C435.582947,123.351532 434.256378,118.681808 432.890869,113.874962 
	C424.127258,115.823479 416.020752,117.604050 407.924957,119.431808 
	C399.050110,121.435463 398.923798,121.443283 398.152985,130.475006 
	C397.898773,133.453979 396.970306,134.727310 393.888153,135.342880 
	C383.944977,137.328812 374.081512,139.715408 364.194855,141.980606 
	C362.719147,142.318741 361.284088,142.834442 359.830231,143.267975 
	C359.970093,143.915619 360.109985,144.563263 360.249847,145.210907 
	C368.826233,144.269165 377.125732,141.544601 386.429016,139.807358 
M214.894730,180.250534 
	C219.443726,179.231995 224.033966,178.366074 228.529785,177.150833 
	C232.797684,175.997192 237.566483,176.052628 241.344772,173.553940 
	C241.150375,172.935257 240.955994,172.316574 240.761597,171.697876 
	C215.418381,177.372482 190.075150,183.047073 164.193787,188.842163 
	C165.665146,194.011124 166.958710,198.555511 168.268326,203.156235 
	C169.626190,202.995575 170.454727,202.970917 171.248672,202.792435 
	C180.831741,200.638107 190.436478,198.566711 199.954453,196.153717 
	C201.119263,195.858398 202.455292,193.776840 202.619736,192.393250 
	C203.766388,182.746536 203.674210,182.736099 213.114471,180.710907 
	C213.439743,180.641129 213.757996,180.538452 214.894730,180.250534 
M275.476105,86.916153 
	C268.412018,67.070175 261.347961,47.224201 254.176926,27.077692 
	C251.296707,28.231594 249.052124,29.130846 246.438431,30.177971 
	C255.094040,54.481068 263.603699,78.374374 272.184875,102.468445 
	C275.118683,101.617210 277.458588,100.938301 280.136353,100.161362 
	C278.594788,95.729004 277.187286,91.682152 275.476105,86.916153 
M345.248138,285.262115 
	C345.865143,286.765503 346.482178,288.268860 347.243378,290.123566 
	C349.855652,289.055206 352.197540,288.097443 354.779053,287.041656 
	C346.084747,262.635193 337.590576,238.790573 329.042908,214.795822 
	C326.093201,215.666824 323.758209,216.356293 321.049835,217.156021 
	C329.127411,239.858627 337.073547,262.191864 345.248138,285.262115 
M209.163071,203.797272 
	C198.034668,209.322098 186.906250,214.846924 175.369736,220.574356 
	C178.175690,225.491043 180.703140,229.919678 183.456345,234.743912 
	C191.070038,230.937653 198.295883,227.325302 205.645508,223.651062 
	C205.056396,220.584320 204.695786,217.784424 203.955246,215.088898 
	C203.058044,211.823120 203.911835,210.062317 207.175064,208.585342 
	C215.202133,204.952225 223.013245,200.840851 230.900742,196.900848 
	C236.339676,194.183929 241.761108,191.431992 247.190353,188.695694 
	C247.051117,188.043060 246.911880,187.390427 246.772644,186.737793 
	C245.318497,186.875488 243.669754,186.614075 242.440628,187.213333 
	C231.524414,192.535355 220.682449,198.009735 209.163071,203.797272 
M383.374908,113.911621 
	C373.614960,118.788025 363.855011,123.664436 354.095062,128.540848 
	C354.214478,129.175003 354.333893,129.809174 354.453308,130.443329 
	C356.024872,130.270065 357.804474,130.518234 359.136902,129.860535 
	C380.312286,119.408203 401.432556,108.844254 422.554718,98.284378 
	C423.547546,97.788010 424.440552,97.092079 425.542664,96.384743 
	C424.255402,93.959618 423.149139,91.731888 421.910187,89.580559 
	C420.599762,87.305031 419.163055,85.102249 417.639923,82.638672 
	C412.704773,85.077812 408.099579,87.339500 403.507141,89.626892 
	C395.724701,93.503189 395.525726,93.551826 397.242371,101.855560 
	C397.974792,105.398453 397.367401,107.380951 393.886688,108.740799 
	C390.493347,110.066528 387.316437,111.946136 383.374908,113.911621 
M404.786713,65.703033 
	C401.698212,62.514698 398.609741,59.326366 395.334351,55.945080 
	C391.144104,59.493187 387.380341,62.680157 383.505127,65.961502 
	C384.967529,68.633919 386.060089,71.058594 387.534332,73.223335 
	C389.699677,76.402931 389.310120,78.497612 386.163483,81.034790 
	C376.710999,88.656349 367.567596,96.661362 358.306854,104.520584 
	C353.772644,108.368599 349.245544,112.225044 344.498108,116.262299 
	C345.847260,117.475906 346.760803,118.297668 347.736359,119.175217 
	C366.945312,102.877296 385.828339,86.821892 404.771332,70.837540 
	C406.613708,69.282898 407.476105,68.019508 404.786713,65.703033 
M290.959747,58.380936 
	C289.660309,45.685711 288.360870,32.990486 287.012604,19.818377 
	C284.504700,20.171274 282.331512,20.477074 279.919159,20.816526 
	C282.562317,47.068115 285.151184,72.780281 287.776886,98.858559 
	C290.427795,98.399055 292.472321,98.044655 294.839020,97.634415 
	C293.552094,84.683830 292.290466,71.987839 290.959747,58.380936 
M232.985977,215.503677 
	C220.064117,226.465302 207.142242,237.426910 193.818680,248.729309 
	C198.249557,252.842194 202.420624,256.713928 206.708603,260.694153 
	C210.295792,257.589386 214.012177,254.372833 217.625259,251.245636 
	C215.438217,247.078033 213.520813,243.424271 211.444244,239.467209 
	C226.549942,226.642990 241.453262,213.990570 256.950226,200.834198 
	C255.727036,199.541885 254.885406,198.652695 253.979797,197.695908 
	C246.708969,203.859131 240.115585,209.448120 232.985977,215.503677 
M319.677429,279.719055 
	C317.613434,259.438049 315.549469,239.157059 313.449554,218.523026 
	C310.823730,218.874725 308.775055,219.149109 306.361847,219.472336 
	C308.997589,245.682526 311.582794,271.390137 314.192780,297.344238 
	C316.886810,297.061951 318.941803,296.846588 321.246613,296.605072 
	C320.718811,290.859650 320.248566,285.740479 319.677429,279.719055 
M359.114471,69.572578 
	C350.298218,81.798447 341.481964,94.024323 332.524323,106.446243 
	C334.139191,107.487518 335.337494,108.260178 336.801483,109.204155 
	C352.112183,88.007095 367.259399,67.036346 382.752930,45.586163 
	C377.350006,42.194443 372.356415,39.059681 367.008698,35.702606 
	C365.351349,38.013733 363.949860,39.968048 362.497437,41.993404 
	C365.920685,45.259872 369.026245,48.223198 372.270111,51.318504 
	C367.873199,57.428387 363.708710,63.215298 359.114471,69.572578 
M229.697906,256.155212 
	C226.050568,261.226715 222.403214,266.298248 218.488861,271.740997 
	C224.001892,275.166779 229.029526,278.290924 234.248230,281.533783 
	C235.911179,279.229095 237.248474,277.375702 238.781342,275.251282 
	C235.363312,272.136139 232.081177,269.144836 228.795502,266.150330 
	C242.385757,247.317520 255.480301,229.171677 268.743439,210.792191 
	C267.037506,209.726807 265.818573,208.965561 264.420837,208.092651 
	C252.884338,224.045990 241.490021,239.802704 229.697906,256.155212 
M251.442291,289.148804 
	C256.573944,290.797089 261.705627,292.445343 266.837280,294.093597 
	C267.049042,293.451965 267.260773,292.810303 267.472534,292.168640 
	C263.430206,290.153412 259.387878,288.138153 255.144852,286.022858 
	C264.479065,262.858124 273.646118,240.108337 282.917999,217.098328 
	C280.798523,216.411804 279.257965,215.912827 277.332947,215.289291 
	C267.785065,238.945969 258.305817,262.366882 248.985413,285.850800 
	C248.712753,286.537811 250.116165,287.889984 251.442291,289.148804 
M340.877533,44.284161 
	C333.417908,62.751518 325.958313,81.218880 318.327728,100.109558 
	C320.432037,100.822830 322.054199,101.372665 323.903412,101.999474 
	C333.734589,77.632660 343.409119,53.654072 353.415100,28.853943 
	C346.598694,27.095499 340.496155,25.521208 334.393616,23.946915 
	C334.259979,24.451998 334.126373,24.957081 333.992737,25.462164 
	C337.988373,27.311188 341.984009,29.160212 346.166382,31.095652 
	C344.353394,35.567749 342.735260,39.559254 340.877533,44.284161 
M316.660614,49.328651 
	C317.971832,39.846149 319.283020,30.363647 320.642090,20.535154 
	C318.324097,20.262743 316.617523,20.062181 314.664398,19.832649 
	C310.931183,46.026894 307.283936,71.617882 303.574860,97.642746 
	C306.011353,97.777115 307.733276,97.872086 309.667480,97.978752 
	C311.982147,81.751541 314.232727,65.973480 316.660614,49.328651 
M289.760803,275.344604 
	C292.358734,256.954498 294.956665,238.564407 297.607727,219.798126 
	C295.466217,219.519211 293.726990,219.292694 291.607819,219.016693 
	C287.894226,245.067123 284.245728,270.660828 280.533752,296.700012 
	C282.786469,296.892456 284.512604,297.039917 286.549530,297.213898 
	C287.611969,289.955475 288.617340,283.086945 289.760803,275.344604 
z"/>
<path fill="#F6F6F6" opacity="1.000000" stroke="none" 
	d="
M216.310944,111.752953 
	C223.158783,115.531616 229.681900,119.136253 235.607605,122.410759 
	C232.855637,125.600662 230.416824,128.427567 227.808945,131.450455 
	C209.643082,121.440422 191.764771,111.588837 173.332428,101.431969 
	C175.066162,97.897217 176.699799,94.566566 178.496933,90.902542 
	C191.258728,97.941025 203.622482,104.759979 216.310944,111.752953 
z"/>
<path fill="#F6F6F6" opacity="1.000000" stroke="none" 
	d="
M381.048889,190.004150 
	C396.782806,198.673264 412.188080,207.181595 427.931885,215.876892 
	C426.135651,219.499176 424.540497,222.715973 422.740204,226.346481 
	C403.197632,215.588928 384.010834,205.027237 364.620026,194.353241 
	C367.682922,191.544861 370.636993,188.836227 373.737885,185.993011 
	C376.074341,187.281448 378.397308,188.562408 381.048889,190.004150 
z"/>
<path fill="#F5F5F5" opacity="1.000000" stroke="none" 
	d="
M391.971863,229.033813 
	C397.973724,234.571747 403.710388,239.873489 409.785706,245.488266 
	C407.593018,248.137787 405.526611,250.634705 403.030304,253.651062 
	C385.241486,237.239349 367.698944,221.054825 350.182495,204.894409 
	C353.324463,202.976242 356.285095,201.168777 359.591125,199.150436 
	C370.239716,208.980606 380.973206,218.889114 391.971863,229.033813 
z"/>
<path fill="#F6F6F6" opacity="1.000000" stroke="none" 
	d="
M229.285675,106.708832 
	C216.587921,94.985176 204.149933,83.502647 191.391647,71.724411 
	C193.696228,69.016998 195.800507,66.544907 198.263062,63.651917 
	C215.873703,79.913490 233.232285,95.942314 250.761612,112.128807 
	C247.496429,114.355789 244.902069,116.125252 241.798447,118.242043 
	C237.764069,114.524048 233.654770,110.737007 229.285675,106.708832 
z"/>
<path fill="#F5F5F5" opacity="1.000000" stroke="none" 
	d="
M235.936996,158.800629 
	C229.115601,158.655609 222.286194,158.661911 215.476135,158.302200 
	C212.031296,158.120224 210.075073,158.953094 208.863419,162.534317 
	C206.258698,170.232941 206.037628,170.109314 197.562271,170.076431 
	C185.617950,170.030090 173.673294,170.064697 161.356873,170.064697 
	C161.356873,164.579575 161.356873,160.315979 161.356873,155.349869 
	C186.363953,155.919983 211.430527,156.491455 236.497559,157.622833 
	C236.311005,158.388718 236.123993,158.594681 235.936996,158.800629 
z"/>
<path fill="#F6F6F6" opacity="1.000000" stroke="none" 
	d="
M435.736755,193.625214 
	C434.581116,194.131943 433.468719,194.587997 432.540680,194.343719 
	C415.511993,189.861206 398.501617,185.309021 381.502319,180.716095 
	C380.292847,180.389282 379.199463,179.632767 378.533600,179.309692 
	C380.526917,176.467911 382.195007,173.773483 384.207458,171.367035 
	C385.086853,170.315445 386.893402,168.991516 387.901855,169.251877 
	C404.589081,173.559631 421.216309,178.100006 438.180084,182.675461 
	C437.347015,186.481491 436.606445,189.865021 435.736755,193.625214 
z"/>
<path fill="#F6F6F6" opacity="1.000000" stroke="none" 
	d="
M165.218750,124.495255 
	C166.482849,123.713402 167.799713,122.729195 168.794067,122.987320 
	C185.511719,127.327042 202.195236,131.799286 218.864258,136.323486 
	C220.232651,136.694870 221.441620,137.653641 222.218781,138.069077 
	C220.730133,140.334030 219.022827,142.458847 217.843704,144.844681 
	C216.348755,147.869507 214.660614,148.656372 211.196793,147.671158 
	C195.401733,143.178574 179.506393,139.038589 163.138031,134.634888 
	C163.827194,131.242233 164.474304,128.056625 165.218750,124.495255 
z"/>
<path fill="#F5F5F5" opacity="1.000000" stroke="none" 
	d="
M220.892242,44.130531 
	C222.989136,42.244076 224.276154,42.206726 225.819794,44.567776 
	C238.843796,64.488411 251.988876,84.329895 265.441864,104.716911 
	C262.615509,106.051865 260.003082,107.285774 256.808960,108.794441 
	C243.342117,88.411964 229.910629,68.083000 216.357849,47.570465 
	C217.988235,46.320328 219.293427,45.319546 220.892242,44.130531 
z"/>
<path fill="#F5F5F5" opacity="1.000000" stroke="none" 
	d="
M360.776917,233.174576 
	C368.860077,245.433929 376.749756,257.387848 384.887177,269.717102 
	C382.440033,271.525116 380.073212,273.273834 377.279114,275.338165 
	C363.397156,254.331924 349.659912,233.544647 335.755035,212.503708 
	C338.832611,211.096390 341.512482,209.870926 344.448395,208.528397 
	C349.933258,216.802643 355.258362,224.835892 360.776917,233.174576 
z"/>
<path fill="#F3F3F3" opacity="1.000000" stroke="none" 
	d="
M386.016113,139.886795 
	C377.125732,141.544601 368.826233,144.269165 360.249847,145.210907 
	C360.109985,144.563263 359.970093,143.915619 359.830231,143.267975 
	C361.284088,142.834442 362.719147,142.318741 364.194855,141.980606 
	C374.081512,139.715408 383.944977,137.328812 393.888153,135.342880 
	C396.970306,134.727310 397.898773,133.453979 398.152985,130.475006 
	C398.923798,121.443283 399.050110,121.435463 407.924957,119.431808 
	C416.020752,117.604050 424.127258,115.823479 432.890869,113.874962 
	C434.256378,118.681808 435.582947,123.351532 437.015472,128.394287 
	C419.783051,132.282181 403.106018,136.044769 386.016113,139.886795 
z"/>
<path fill="#F2F2F2" opacity="1.000000" stroke="none" 
	d="
M214.487122,180.350815 
	C213.757996,180.538452 213.439743,180.641129 213.114471,180.710907 
	C203.674210,182.736099 203.766388,182.746536 202.619736,192.393250 
	C202.455292,193.776840 201.119263,195.858398 199.954453,196.153717 
	C190.436478,198.566711 180.831741,200.638107 171.248672,202.792435 
	C170.454727,202.970917 169.626190,202.995575 168.268326,203.156235 
	C166.958710,198.555511 165.665146,194.011124 164.193787,188.842163 
	C190.075150,183.047073 215.418381,177.372482 240.761597,171.697876 
	C240.955994,172.316574 241.150375,172.935257 241.344772,173.553940 
	C237.566483,176.052628 232.797684,175.997192 228.529785,177.150833 
	C224.033966,178.366074 219.443726,179.231995 214.487122,180.350815 
z"/>
<path fill="#F3F3F3" opacity="1.000000" stroke="none" 
	d="
M275.627930,87.275726 
	C277.187286,91.682152 278.594788,95.729004 280.136353,100.161362 
	C277.458588,100.938301 275.118683,101.617210 272.184875,102.468445 
	C263.603699,78.374374 255.094040,54.481068 246.438431,30.177971 
	C249.052124,29.130846 251.296707,28.231594 254.176926,27.077692 
	C261.347961,47.224201 268.412018,67.070175 275.627930,87.275726 
z"/>
<path fill="#F3F3F3" opacity="1.000000" stroke="none" 
	d="
M345.133911,284.893616 
	C337.073547,262.191864 329.127411,239.858627 321.049835,217.156021 
	C323.758209,216.356293 326.093201,215.666824 329.042908,214.795822 
	C337.590576,238.790573 346.084747,262.635193 354.779053,287.041656 
	C352.197540,288.097443 349.855652,289.055206 347.243378,290.123566 
	C346.482178,288.268860 345.865143,286.765503 345.133911,284.893616 
z"/>
<path fill="#F7F7F7" opacity="1.000000" stroke="none" 
	d="
M391.045441,158.109695 
	C395.181641,146.841232 395.179230,146.978241 406.981750,147.186737 
	C417.758789,147.377136 428.541870,147.227112 439.752502,147.227112 
	C439.752502,152.584061 439.752502,156.835968 439.752502,160.899170 
	C423.567932,160.899170 407.193573,160.899170 390.506226,160.478760 
	C390.477295,159.408813 390.761353,158.759247 391.045441,158.109695 
z"/>
<path fill="#F3F3F3" opacity="1.000000" stroke="none" 
	d="
M209.490814,203.618225 
	C220.682449,198.009735 231.524414,192.535355 242.440628,187.213333 
	C243.669754,186.614075 245.318497,186.875488 246.772644,186.737793 
	C246.911880,187.390427 247.051117,188.043060 247.190353,188.695694 
	C241.761108,191.431992 236.339676,194.183929 230.900742,196.900848 
	C223.013245,200.840851 215.202133,204.952225 207.175064,208.585342 
	C203.911835,210.062317 203.058044,211.823120 203.955246,215.088898 
	C204.695786,217.784424 205.056396,220.584320 205.645508,223.651062 
	C198.295883,227.325302 191.070038,230.937653 183.456345,234.743912 
	C180.703140,229.919678 178.175690,225.491043 175.369736,220.574356 
	C186.906250,214.846924 198.034668,209.322098 209.490814,203.618225 
z"/>
<path fill="#F2F2F2" opacity="1.000000" stroke="none" 
	d="
M383.709717,113.747093 
	C387.316437,111.946136 390.493347,110.066528 393.886688,108.740799 
	C397.367401,107.380951 397.974792,105.398453 397.242371,101.855560 
	C395.525726,93.551826 395.724701,93.503189 403.507141,89.626892 
	C408.099579,87.339500 412.704773,85.077812 417.639923,82.638672 
	C419.163055,85.102249 420.599762,87.305031 421.910187,89.580559 
	C423.149139,91.731888 424.255402,93.959618 425.542664,96.384743 
	C424.440552,97.092079 423.547546,97.788010 422.554718,98.284378 
	C401.432556,108.844254 380.312286,119.408203 359.136902,129.860535 
	C357.804474,130.518234 356.024872,130.270065 354.453308,130.443329 
	C354.333893,129.809174 354.214478,129.175003 354.095062,128.540848 
	C363.855011,123.664436 373.614960,118.788025 383.709717,113.747093 
z"/>
<path fill="#F0F0F0" opacity="1.000000" stroke="none" 
	d="
M405.015564,65.968109 
	C407.476105,68.019508 406.613708,69.282898 404.771332,70.837540 
	C385.828339,86.821892 366.945312,102.877296 347.736359,119.175217 
	C346.760803,118.297668 345.847260,117.475906 344.498108,116.262299 
	C349.245544,112.225044 353.772644,108.368599 358.306854,104.520584 
	C367.567596,96.661362 376.710999,88.656349 386.163483,81.034790 
	C389.310120,78.497612 389.699677,76.402931 387.534332,73.223335 
	C386.060089,71.058594 384.967529,68.633919 383.505127,65.961502 
	C387.380341,62.680157 391.144104,59.493187 395.334351,55.945080 
	C398.609741,59.326366 401.698212,62.514698 405.015564,65.968109 
z"/>
<path fill="#F0F0F0" opacity="1.000000" stroke="none" 
	d="
M290.994293,58.836388 
	C292.290466,71.987839 293.552094,84.683830 294.839020,97.634415 
	C292.472321,98.044655 290.427795,98.399055 287.776886,98.858559 
	C285.151184,72.780281 282.562317,47.068115 279.919159,20.816526 
	C282.331512,20.477074 284.504700,20.171274 287.012604,19.818377 
	C288.360870,32.990486 289.660309,45.685711 290.994293,58.836388 
z"/>
<path fill="#F0F0F0" opacity="1.000000" stroke="none" 
	d="
M233.254089,215.270386 
	C240.115585,209.448120 246.708969,203.859131 253.979797,197.695908 
	C254.885406,198.652695 255.727036,199.541885 256.950226,200.834198 
	C241.453262,213.990570 226.549942,226.642990 211.444244,239.467209 
	C213.520813,243.424271 215.438217,247.078033 217.625259,251.245636 
	C214.012177,254.372833 210.295792,257.589386 206.708603,260.694153 
	C202.420624,256.713928 198.249557,252.842194 193.818680,248.729309 
	C207.142242,237.426910 220.064117,226.465302 233.254089,215.270386 
z"/>
<path fill="#F2F2F2" opacity="1.000000" stroke="none" 
	d="
M319.727875,280.170166 
	C320.248566,285.740479 320.718811,290.859650 321.246613,296.605072 
	C318.941803,296.846588 316.886810,297.061951 314.192780,297.344238 
	C311.582794,271.390137 308.997589,245.682526 306.361847,219.472336 
	C308.775055,219.149109 310.823730,218.874725 313.449554,218.523026 
	C315.549469,239.157059 317.613434,259.438049 319.727875,280.170166 
z"/>
<path fill="#EFEFEF" opacity="1.000000" stroke="none" 
	d="
M359.329346,69.287399 
	C363.708710,63.215298 367.873199,57.428387 372.270111,51.318504 
	C369.026245,48.223198 365.920685,45.259872 362.497437,41.993404 
	C363.949860,39.968048 365.351349,38.013733 367.008698,35.702606 
	C372.356415,39.059681 377.350006,42.194443 382.752930,45.586163 
	C367.259399,67.036346 352.112183,88.007095 336.801483,109.204155 
	C335.337494,108.260178 334.139191,107.487518 332.524323,106.446243 
	C341.481964,94.024323 350.298218,81.798447 359.329346,69.287399 
z"/>
<path fill="#EEEEEE" opacity="1.000000" stroke="none" 
	d="
M229.896805,255.857315 
	C241.490021,239.802704 252.884338,224.045990 264.420837,208.092651 
	C265.818573,208.965561 267.037506,209.726807 268.743439,210.792191 
	C255.480301,229.171677 242.385757,247.317520 228.795502,266.150330 
	C232.081177,269.144836 235.363312,272.136139 238.781342,275.251282 
	C237.248474,277.375702 235.911179,279.229095 234.248230,281.533783 
	C229.029526,278.290924 224.001892,275.166779 218.488861,271.740997 
	C222.403214,266.298248 226.050568,261.226715 229.896805,255.857315 
z"/>
<path fill="#EDEDED" opacity="1.000000" stroke="none" 
	d="
M251.090210,289.040405 
	C250.116165,287.889984 248.712753,286.537811 248.985413,285.850800 
	C258.305817,262.366882 267.785065,238.945969 277.332947,215.289291 
	C279.257965,215.912827 280.798523,216.411804 282.917999,217.098328 
	C273.646118,240.108337 264.479065,262.858124 255.144852,286.022858 
	C259.387878,288.138153 263.430206,290.153412 267.472534,292.168640 
	C267.260773,292.810303 267.049042,293.451965 266.837280,294.093597 
	C261.705627,292.445343 256.573944,290.797089 251.090210,289.040405 
z"/>
<path fill="#EEEEEE" opacity="1.000000" stroke="none" 
	d="
M340.997314,43.917458 
	C342.735260,39.559254 344.353394,35.567749 346.166382,31.095652 
	C341.984009,29.160212 337.988373,27.311188 333.992737,25.462164 
	C334.126373,24.957081 334.259979,24.451998 334.393616,23.946915 
	C340.496155,25.521208 346.598694,27.095499 353.415100,28.853943 
	C343.409119,53.654072 333.734589,77.632660 323.903412,101.999474 
	C322.054199,101.372665 320.432037,100.822830 318.327728,100.109558 
	C325.958313,81.218880 333.417908,62.751518 340.997314,43.917458 
z"/>
<path fill="#EDEDED" opacity="1.000000" stroke="none" 
	d="
M316.571960,49.762039 
	C314.232727,65.973480 311.982147,81.751541 309.667480,97.978752 
	C307.733276,97.872086 306.011353,97.777115 303.574860,97.642746 
	C307.283936,71.617882 310.931183,46.026894 314.664398,19.832649 
	C316.617523,20.062181 318.324097,20.262743 320.642090,20.535154 
	C319.283020,30.363647 317.971832,39.846149 316.571960,49.762039 
z"/>
<path fill="#EEEEEE" opacity="1.000000" stroke="none" 
	d="
M289.691772,275.781494 
	C288.617340,283.086945 287.611969,289.955475 286.549530,297.213898 
	C284.512604,297.039917 282.786469,296.892456 280.533752,296.700012 
	C284.245728,270.660828 287.894226,245.067123 291.607819,219.016693 
	C293.726990,219.292694 295.466217,219.519211 297.607727,219.798126 
	C294.956665,238.564407 292.358734,256.954498 289.691772,275.781494 
z"/>
<path fill="#C4C4C4" opacity="1.000000" stroke="none" 
	d="
M390.614380,158.323807 
	C390.761353,158.759247 390.477295,159.408813 390.099945,160.405106 
	C380.672729,160.751846 371.338806,160.751846 362.004852,160.751846 
	C361.998749,160.013870 361.992615,159.275894 361.986511,158.537918 
	C371.385437,158.537918 380.784363,158.537918 390.614380,158.323807 
z"/>
<path fill="#B5B5B5" opacity="1.000000" stroke="none" 
	d="
M236.296600,158.943512 
	C236.123993,158.594681 236.311005,158.388718 236.855942,157.968842 
	C237.213882,157.754929 237.253769,157.789597 237.743393,157.873779 
	C238.527863,157.994965 238.822693,158.031952 239.117538,158.068970 
	C238.297104,158.408096 237.476654,158.747238 236.296600,158.943512 
z"/>
<path fill="#F5F5F5" opacity="1.000000" stroke="none" 
	d="
M239.054962,157.695938 
	C238.822693,158.031952 238.527863,157.994965 237.790268,157.904312 
	C237.895798,157.674759 238.444092,157.498840 239.054962,157.695938 
z"/>
</svg>