<svg width="28" height="28" viewBox="0 0 28 28" fill="none" xmlns="http://www.w3.org/2000/svg">
<g clip-path="url(#clip0_0_13)">
<path d="M11 0H1C0.45 0 0 0.45 0 1V11C0 11.55 0.45 12 1 12H11C11.55 12 12 11.55 12 11V1C12 0.45 11.55 0 11 0ZM10 10H2V2H10V10Z" fill="white"/>
<path d="M27 0H17C16.45 0 16 0.45 16 1V11C16 11.55 16.45 12 17 12H27C27.55 12 28 11.55 28 11V1C28 0.45 27.55 0 27 0ZM26 10H18V2H26V10Z" fill="white"/>
<path d="M11 16H1C0.45 16 0 16.45 0 17V27C0 27.55 0.45 28 1 28H11C11.55 28 12 27.55 12 27V17C12 16.45 11.55 16 11 16ZM10 26H2V18H10V26Z" fill="white"/>
<path d="M27 16H17C16.45 16 16 16.45 16 17V27C16 27.55 16.45 28 17 28H27C27.55 28 28 27.55 28 27V17C28 16.45 27.55 16 27 16ZM26 26H18V18H26V26Z" fill="#FE6703"/>
</g>
<defs>
<clipPath id="clip0_0_13">
<rect width="28" height="28" fill="white"/>
</clipPath>
</defs>
</svg>
