<svg width="24" height="24" viewBox="0 0 24 24" fill="none" xmlns="http://www.w3.org/2000/svg">
<path d="M17.001 2L17.3093 2.01666C18.7673 2.16663 19.9129 3.35804 19.9921 4.83689C20.7336 5.32845 21.246 6.14494 21.3251 7.08224L21.3335 7.33218C21.3335 7.56963 21.3043 7.79875 21.2502 8.01953C21.6751 8.4986 21.95 9.11513 21.9917 9.79832L22 9.99827C22 10.5482 21.85 11.0564 21.5918 11.498C21.7959 11.8479 21.9333 12.2436 21.9792 12.6644L21.9958 12.9976C21.9958 14.5515 20.8169 15.8262 19.3047 15.9803L18.9965 15.997H14.4266L15.014 17.2467L15.1431 17.5633C15.6638 19.0505 15.0681 20.7085 13.7184 21.5208L13.4185 21.6833C11.8563 22.4164 10.015 21.8332 9.14434 20.3835L9.11935 20.346L9.00687 20.1378L8.98188 20.0878L7.72797 17.4217C7.33639 18.1632 6.56155 18.6672 5.6659 18.6672H4.33285C3.04562 18.6672 2 17.6216 2 16.3344L2.00417 6.99892C2.00417 5.7117 3.04978 4.66609 4.33701 4.66609H5.67007C6.18663 4.66609 6.66569 4.83689 7.05311 5.12433C7.603 4.23285 8.38617 3.48301 9.3443 2.97479L9.85253 2.70401L9.88169 2.69152L10.1566 2.55821L10.1858 2.54572L10.4816 2.42074C11.1773 2.1458 11.9188 2.00833 12.6728 2.00833L17.001 2ZM12.6644 3.99957C12.1645 3.99957 11.6688 4.09538 11.2022 4.27451L11.0065 4.35782L10.7857 4.46613L10.2774 4.73691C9.06103 5.3826 8.26536 6.60734 8.16538 7.96955L8.15705 8.30281V13.006L8.16122 13.1768C8.18204 13.5183 8.26536 13.8516 8.41116 14.164L10.7773 19.2005L10.8648 19.3588C11.2147 19.9295 11.9479 20.1544 12.5645 19.867L12.6853 19.8003C13.2268 19.4754 13.4643 18.813 13.256 18.2173L13.206 18.0924L11.9479 15.4179C11.8021 15.1097 11.8271 14.7472 12.0104 14.4556C12.1937 14.164 12.5103 13.9932 12.8519 13.9932H18.9965L19.0964 13.9891C19.5672 13.9433 19.9421 13.5683 19.9879 13.0976L19.9921 12.9935C19.9921 12.6977 19.8629 12.4311 19.6505 12.2436C19.4339 12.052 19.3089 11.7812 19.3089 11.4938C19.3089 11.2063 19.4339 10.9356 19.6505 10.7439C19.8338 10.5815 19.9588 10.3565 19.9838 10.1066L19.9921 9.99411C19.9921 9.64418 19.8088 9.33175 19.5255 9.15262C19.0798 8.86519 18.934 8.28198 19.1923 7.81958C19.2547 7.71127 19.2964 7.5863 19.3131 7.46132L19.3214 7.32802C19.3214 6.88645 19.034 6.51153 18.6299 6.37822C18.1425 6.21992 17.8509 5.71587 17.9633 5.21181C17.9717 5.17432 17.9758 5.13682 17.98 5.1035L17.9883 4.99519C17.9883 4.47863 17.5926 4.05372 17.0885 4.00373L17.001 3.99957H12.6644ZM4.33701 6.66566C4.15372 6.66566 4.00375 6.81563 4.00375 6.99892V16.3302C4.00375 16.5135 4.15372 16.6635 4.33701 16.6635H5.67007C5.85336 16.6635 6.00333 16.5135 6.00333 16.3302V6.99892C6.00333 6.81563 5.85336 6.66566 5.67007 6.66566H4.33701Z" fill="black"/>
</svg>
