<svg width="24" height="24" viewBox="0 0 24 24" fill="none" xmlns="http://www.w3.org/2000/svg">
<path d="M9.15119 3.61647C10.0175 2.16678 11.8584 1.58357 13.4202 2.31675L13.7201 2.47505C15.1695 3.34569 15.7526 5.18696 15.0196 6.74912L14.4323 7.99886H19.0012L19.3095 8.01552C20.8213 8.16965 22 9.44854 22 10.9982C22 11.5481 21.8501 12.0563 21.5918 12.4979C21.8459 12.9395 21.9958 13.4477 22 13.9976C22 14.7599 21.7126 15.4472 21.2503 15.9763C21.3045 16.1971 21.3336 16.4262 21.3336 16.6637C21.3336 17.7093 20.7963 18.6216 19.9925 19.1589C19.9134 20.6378 18.768 21.8334 17.3103 21.9792L17.0021 21.9958H12.6664C11.9167 21.9958 11.1712 21.8542 10.4756 21.5834L10.1799 21.4585L10.1508 21.446L9.87588 21.3126L9.84673 21.3001L9.33861 21.0294C8.82632 20.7586 8.36818 20.417 7.96835 20.0254C7.79758 21.146 6.83132 22 5.66514 22H4.33236C3.0454 22 2 20.9544 2 19.6672L2.00833 10.3317C2.00833 9.04446 3.05373 7.99886 4.34069 7.99886H5.67347C6.12328 7.99886 6.54394 8.12799 6.90212 8.35295L8.98875 3.9164L9.01374 3.86641L9.1262 3.65812L9.15119 3.62063V3.61647ZM4.34069 9.99842C4.15743 9.99842 4.0075 10.1484 4.0075 10.3317V19.663C4.0075 19.8463 4.15743 19.9963 4.34069 19.9963H5.67347C5.85673 19.9963 6.00666 19.8463 6.00666 19.663V10.3317C6.00666 10.1484 5.85673 9.99842 5.67347 9.99842H4.34069ZM12.5706 4.12469C11.9542 3.83725 11.2253 4.05804 10.8755 4.62458L10.7838 4.79121L8.41816 9.82763C8.27239 10.1401 8.18909 10.4733 8.16826 10.8149L8.1641 10.9899V15.693L8.17243 16.0221C8.27239 17.3843 9.06372 18.6091 10.284 19.2589L10.763 19.513L11.0254 19.6422C11.5419 19.8755 12.1 19.9963 12.6664 19.9963H17.0021L17.102 19.9921C17.606 19.9421 18.0017 19.513 18.0017 18.9965L17.9933 18.8882C17.9892 18.8507 17.985 18.8174 17.9767 18.7799C17.8642 18.2758 18.1558 17.7717 18.6431 17.6134C19.0471 17.4843 19.3344 17.1052 19.3344 16.6637C19.3344 16.4845 19.2886 16.3221 19.2053 16.1721C18.9429 15.7097 19.0887 15.1223 19.5385 14.839C19.8217 14.6599 20.005 14.3475 20.005 13.9976C20.005 13.7018 19.8759 13.4352 19.6635 13.2477C19.4469 13.0561 19.3219 12.7853 19.3219 12.4979C19.3219 12.2104 19.4469 11.9397 19.6635 11.748C19.8759 11.5606 20.005 11.294 20.005 10.9982L20.0008 10.8982C19.955 10.4275 19.5802 10.0526 19.1095 10.0068L19.0096 10.0026H12.8663C12.5248 10.0026 12.2082 9.82763 12.025 9.54019C11.8417 9.25275 11.8167 8.88616 11.9625 8.5779L13.212 5.89931C13.5035 5.27444 13.2703 4.5371 12.6914 4.19134L12.5706 4.12469Z" fill="black"/>
</svg>
