<svg version="1.1" id="Layer_1" xmlns="http://www.w3.org/2000/svg" xmlns:xlink="http://www.w3.org/1999/xlink" x="0px" y="0px"
	 width="100%" viewBox="0 0 512 512" enable-background="new 0 0 512 512" xml:space="preserve">
<path fill="#000000" opacity="1.000000" stroke="none" 
	d="
M59.531342,1.000000 
	C57.197906,3.464572 53.470802,2.714711 50.253586,3.400028 
	C45.952740,4.316173 41.794975,5.910672 37.386963,6.357263 
	C32.812359,6.820732 31.301462,12.669580 26.432957,12.667521 
	C22.246126,20.491173 14.031103,24.924280 9.943891,33.057426 
	C5.762484,41.378014 2.578847,49.718945 2.286114,59.066727 
	C2.261556,59.850956 1.820564,60.622143 1.286522,61.699696 
	C1.000000,41.741077 1.000000,21.482155 1.000000,1.000000 
	C20.353655,1.000000 39.708168,1.000000 59.531342,1.000000 
z"/>
<path fill="#000000" opacity="1.000000" stroke="none" 
	d="
M453.468658,513.000000 
	C456.265930,510.441986 460.332733,511.681458 463.980865,510.821411 
	C468.558197,509.742340 473.973907,509.130249 477.451721,507.105377 
	C481.443115,504.781464 486.328796,502.684967 489.453125,498.444855 
	C492.291443,494.592896 496.221436,491.561829 499.228790,487.814636 
	C506.911316,478.242340 511.350006,467.346802 511.716644,454.938934 
	C511.739685,454.158813 512.193665,453.391418 512.723511,452.309052 
	C513.000000,472.259552 513.000000,492.519073 513.000000,513.000000 
	C493.312988,513.000000 473.625153,513.000000 453.468658,513.000000 
z"/>
<path fill="#000000" opacity="1.000000" stroke="none" 
	d="
M513.000000,61.531342 
	C510.181396,58.969753 511.744659,55.017990 510.963287,51.540127 
	C508.392883,40.099697 503.593262,30.207729 495.313141,21.702738 
	C490.167389,16.417257 484.497742,11.773405 479.120697,6.792655 
	C476.479553,4.346157 472.241791,5.641294 468.771790,4.491412 
	C464.165070,2.964859 459.172943,2.601342 454.173218,1.369043 
	C473.594696,1.000000 493.189362,1.000000 513.000000,1.000000 
	C513.000000,21.020376 513.000000,41.041531 513.000000,61.531342 
z"/>
<path fill="#000000" opacity="1.000000" stroke="none" 
	d="
M1.000000,452.468658 
	C2.245977,452.889160 2.287361,454.213745 2.343810,455.566925 
	C3.011272,471.566864 10.780551,483.989227 21.291672,495.501007 
	C25.443487,500.048035 31.535500,502.029327 34.819416,507.372467 
	C35.594093,508.632874 37.722126,508.370453 38.819004,508.645813 
	C45.885151,510.419647 53.183468,511.268616 60.702789,512.710571 
	C41.072582,513.000000 21.145164,513.000000 1.000000,513.000000 
	C1.000000,492.979645 1.000000,472.958466 1.000000,452.468658 
z"/>
<path fill="#000000" opacity="1.000000" stroke="none" 
	d="
M102.305756,155.717102 
	C92.960403,147.906219 83.966774,140.225693 74.775757,132.789108 
	C71.922081,130.480164 71.614098,128.622452 73.969284,125.830627 
	C76.756897,122.526192 79.389496,119.064438 81.802071,115.477684 
	C84.184334,111.936005 86.229019,112.162292 89.336838,114.806038 
	C108.743607,131.314896 128.289200,147.660599 147.797806,164.049652 
	C157.871048,172.512115 167.971283,180.942444 178.036591,189.414291 
	C179.484619,190.633087 181.346436,191.596283 181.657669,193.553497 
	C180.822662,194.662781 180.030212,194.848175 179.243500,194.335526 
	C178.273911,193.703674 177.380280,192.947540 176.491928,192.199829 
	C165.761230,183.167847 165.545532,182.897156 154.602356,191.763580 
	C150.492538,195.093475 148.126236,194.416336 144.589813,191.375046 
	C130.701248,179.431015 116.602234,167.731689 102.305756,155.717102 
z"/>
<path fill="#000000" opacity="1.000000" stroke="none" 
	d="
M334.682129,323.464539 
	C333.520447,322.188599 331.792206,321.441956 333.371704,319.140198 
	C337.573029,320.801636 340.571411,324.207367 343.809448,327.084991 
	C346.700348,329.654114 349.072052,329.968201 352.087585,327.554840 
	C355.073090,325.165436 358.369354,323.162140 361.333832,320.749329 
	C363.572723,318.927032 365.303833,319.096771 367.447571,320.906525 
	C391.490417,341.203552 415.569733,361.457489 439.682343,381.671570 
	C441.884674,383.517853 442.358887,385.130615 440.432495,387.502289 
	C437.601044,390.988342 434.868134,394.572021 432.342590,398.283783 
	C430.046906,401.657745 428.120209,401.943817 424.828247,399.160309 
	C397.368622,375.941772 369.765442,352.893066 342.205475,329.793213 
	C339.781342,327.761383 337.356781,325.730072 334.682129,323.464539 
z"/>
<path fill="#000000" opacity="1.000000" stroke="none" 
	d="
M349.288330,377.769348 
	C360.760468,397.718109 371.968750,417.397675 383.419800,436.934937 
	C385.500732,440.485291 385.049011,442.287415 381.646301,444.522949 
	C369.015717,452.821167 369.095245,452.925690 361.642181,440.026703 
	C343.731354,409.028381 325.801697,378.040924 307.929626,347.020264 
	C307.080475,345.546356 305.412048,344.219757 306.230072,342.123199 
	C307.608063,341.270386 308.640137,341.847351 309.098785,343.044861 
	C310.670380,347.148468 313.398315,346.701508 316.762146,345.491058 
	C328.267670,341.351074 328.311981,341.407471 334.404755,351.909546 
	C339.334412,360.406830 344.208801,368.936218 349.288330,377.769348 
z"/>
<path fill="#000000" opacity="1.000000" stroke="none" 
	d="
M199.181656,154.857758 
	C202.250137,160.598969 206.018204,165.594528 208.292099,171.627533 
	C207.064621,171.812546 206.526245,171.990829 206.466522,171.888824 
	C202.259552,164.704941 196.789429,168.373245 192.034164,170.643616 
	C187.457886,172.828568 185.222900,172.022873 182.691238,167.571793 
	C165.504990,137.355560 148.092697,107.266937 130.566971,77.245941 
	C128.359451,73.464546 128.674713,71.327782 132.539337,69.364647 
	C135.047272,68.090675 137.298294,66.317680 139.696747,64.820007 
	C145.138901,61.421745 145.207901,61.399525 148.343231,66.819023 
	C165.251984,96.046135 182.128021,125.292160 199.181656,154.857758 
z"/>
<path fill="#000000" opacity="1.000000" stroke="none" 
	d="
M124.856216,220.823059 
	C116.653862,231.555450 116.621017,231.647049 104.261581,227.215530 
	C83.898933,219.914459 63.606506,212.417053 43.227139,205.163513 
	C39.556030,203.856873 38.059845,202.248428 39.547665,198.248154 
	C41.342144,193.423340 42.708759,188.435074 44.155560,183.486847 
	C45.072533,180.350662 46.474667,179.232895 49.963535,180.513000 
	C86.833603,194.041168 123.761787,207.410858 160.652054,220.884155 
	C162.337051,221.499542 165.187836,221.753296 164.134384,224.664169 
	C163.088974,227.552780 160.806183,225.958145 159.068253,225.342773 
	C151.538651,222.676666 143.903259,220.237015 136.584824,217.071243 
	C131.361542,214.811798 127.723251,215.420731 124.856216,220.823059 
z"/>
<path fill="#000000" opacity="1.000000" stroke="none" 
	d="
M363.361633,296.751648 
	C359.249359,295.223663 355.507446,293.823273 351.750854,292.463348 
	C350.108307,291.868713 349.186615,290.860291 349.755127,289.058319 
	C350.438385,286.892822 352.031677,287.570984 353.433929,288.074158 
	C362.365906,291.279205 371.329987,294.403290 380.184235,297.811951 
	C383.229584,298.984314 385.215668,298.377533 387.031250,295.846252 
	C389.457764,292.463196 392.203339,289.297821 394.477295,285.820190 
	C396.222504,283.151215 397.981018,282.396362 401.103241,283.547699 
	C424.689453,292.245361 448.317810,300.829315 471.966614,309.355713 
	C475.048431,310.466797 475.613678,312.114624 474.593262,315.076294 
	C472.913910,319.950562 471.378265,324.888824 470.094757,329.880493 
	C469.037018,333.994141 467.015717,334.564240 463.202545,333.151001 
	C440.725006,324.820435 418.179962,316.671722 395.653625,308.472900 
	C385.015778,304.601074 374.368866,300.753998 363.361633,296.751648 
z"/>
<path fill="#000000" opacity="1.000000" stroke="none" 
	d="
M221.516541,50.611671 
	C226.507111,78.834740 231.416855,106.633865 236.322861,134.433640 
	C237.476852,140.972702 238.354630,147.575333 239.857864,154.032700 
	C240.864960,158.358826 239.304703,159.918259 235.307571,160.072327 
	C234.309998,160.110764 233.314850,160.210342 232.318375,160.278625 
	C222.761047,160.933640 222.657242,160.951904 221.013016,151.699234 
	C214.620331,115.725151 208.327774,79.733253 201.907028,43.764221 
	C201.277649,40.238464 202.415573,38.638470 205.834488,37.741997 
	C218.315735,34.469284 218.300110,34.385006 220.929535,46.736374 
	C221.171143,47.871296 221.269470,49.036713 221.516541,50.611671 
z"/>
<path fill="#000000" opacity="1.000000" stroke="none" 
	d="
M277.650635,379.184906 
	C276.424530,372.216431 275.340790,365.654938 273.988617,359.149231 
	C273.315765,355.912018 274.444946,354.452606 277.593170,354.145782 
	C280.406006,353.871613 283.283356,353.788940 285.998627,353.097260 
	C289.844727,352.117554 291.528046,353.521088 292.160095,357.230682 
	C294.113617,368.696320 296.207947,380.137939 298.221069,391.593536 
	C302.707062,417.120728 307.153381,442.654938 311.669159,468.176849 
	C312.858398,474.898163 312.894897,475.111938 306.251221,476.527100 
	C294.365509,479.058899 295.550201,480.561310 293.439270,468.465576 
	C288.268066,438.834534 282.944519,409.230072 277.650635,379.184906 
z"/>
<path fill="#000000" opacity="1.000000" stroke="none" 
	d="
M432.000000,258.073639 
	C408.533783,258.081207 385.567566,258.092438 362.601349,258.087738 
	C360.940460,258.087402 359.266205,258.081085 357.622070,257.881073 
	C355.579559,257.632599 354.924042,256.179260 354.990845,254.298126 
	C355.058014,252.406387 356.208466,251.709579 357.939301,251.681366 
	C359.270386,251.659668 360.601501,251.625473 361.932617,251.624634 
	C377.243378,251.614853 392.555450,251.502258 407.863983,251.684326 
	C411.465668,251.727158 413.469330,250.600403 414.417542,247.140991 
	C415.646698,242.656586 417.238892,238.269028 418.389526,233.766861 
	C418.983185,231.443863 420.095123,230.332611 422.462616,230.325928 
	C440.599457,230.274689 458.736206,230.204758 476.872986,230.136642 
	C479.874207,230.125381 480.941101,231.996124 481.121948,234.601990 
	C481.524658,240.404755 481.678101,246.231033 482.277191,252.012070 
	C482.799042,257.047882 480.532562,258.221283 475.935028,258.153442 
	C461.459442,257.939850 446.978729,258.073914 432.000000,258.073639 
z"/>
<path fill="#000000" opacity="1.000000" stroke="none" 
	d="
M144.991699,262.371826 
	C131.678085,262.375793 118.860634,262.499542 106.048012,262.305145 
	C102.421227,262.250122 100.495087,263.479767 99.570053,266.934143 
	C98.410004,271.266205 96.811035,275.483917 95.728340,279.832367 
	C95.047920,282.565186 93.826706,283.554474 90.923950,283.545593 
	C73.119553,283.491028 55.314110,283.593689 37.510166,283.764221 
	C34.527866,283.792755 33.162392,282.467041 32.975456,279.736877 
	C32.521351,273.104858 32.165020,266.466156 31.761278,259.830658 
	C31.592817,257.062042 32.977398,255.871231 35.647442,255.915115 
	C36.978291,255.936996 38.310108,255.890869 39.641479,255.891190 
	C76.756844,255.899963 113.872215,255.909821 150.987579,255.924423 
	C152.484909,255.925018 153.982986,255.951706 155.479340,256.004883 
	C157.593765,256.080017 158.948227,256.986237 159.028458,259.294952 
	C159.116074,261.816437 157.541672,262.351868 155.475464,262.352600 
	C152.146866,262.353760 148.818283,262.364349 144.991699,262.371826 
z"/>
<path fill="#000000" opacity="1.000000" stroke="none" 
	d="
M229.212860,480.390259 
	C214.476593,478.179474 216.707367,480.261627 218.860672,467.600830 
	C224.989441,431.565125 231.516800,395.597290 237.778366,359.583801 
	C238.577774,354.986084 240.101715,353.140869 245.321533,354.256287 
	C254.676926,356.255341 254.672424,355.859436 253.069870,364.842590 
	C246.471924,401.827606 239.920502,438.820923 233.392731,475.818420 
	C232.980438,478.155060 233.121582,480.721466 229.212860,480.390259 
z"/>
<path fill="#000000" opacity="1.000000" stroke="none" 
	d="
M287.893036,87.711670 
	C283.938538,110.040451 280.083313,131.950211 276.247467,153.863342 
	C275.094666,160.449066 275.119415,160.453430 268.293823,159.513504 
	C259.371460,158.284821 259.364227,158.283524 260.900543,149.614365 
	C267.474274,112.520638 274.117615,75.438950 280.531708,38.317635 
	C281.193970,34.484665 282.538788,33.038048 286.321594,33.717331 
	C298.384125,35.883408 297.310089,33.717049 295.336700,45.078823 
	C292.892609,59.150799 290.445557,73.222260 287.893036,87.711670 
z"/>
<path fill="#000000" opacity="1.000000" stroke="none" 
	d="
M364.339935,210.205185 
	C382.699341,203.535095 400.667999,196.933136 418.718781,190.563904 
	C422.377319,189.272980 423.669525,187.395874 423.038940,183.575089 
	C422.336731,179.320068 422.248810,174.967361 421.688171,170.684036 
	C421.283051,167.588699 422.186218,165.802917 425.327026,164.721130 
	C434.295013,161.632294 443.208862,158.371185 452.048523,154.932434 
	C455.494110,153.592056 457.598602,154.038666 459.068634,157.633652 
	C461.650513,163.947815 464.425995,170.184937 467.223419,176.408005 
	C468.748840,179.801483 467.639832,181.387695 464.218872,182.622940 
	C427.594055,195.847427 391.021332,209.216049 354.422302,222.512115 
	C349.178650,224.417084 349.029724,224.252396 346.991119,216.703629 
	C352.588470,214.611847 358.283325,212.483627 364.339935,210.205185 
z"/>
<path fill="#000000" opacity="1.000000" stroke="none" 
	d="
M57.624535,328.507507 
	C91.788506,316.074585 125.584564,303.773621 159.382614,291.478088 
	C161.796509,290.599945 164.067230,288.888489 165.875137,292.835693 
	C167.783340,297.001862 165.631332,298.043030 162.444839,299.181580 
	C146.456482,304.894440 130.496857,310.687897 114.535202,316.475281 
	C107.806290,318.915039 101.117805,321.467773 94.369583,323.852051 
	C91.406929,324.898804 90.141304,326.499390 90.729027,329.845184 
	C91.503662,334.255066 91.667053,338.768646 92.241989,343.218445 
	C92.637474,346.279205 91.795212,348.160004 88.624023,349.255219 
	C79.341805,352.460999 70.128265,355.872070 60.943787,359.350464 
	C58.238880,360.374878 56.587582,359.933929 55.414047,357.194550 
	C52.529961,350.462097 49.547733,343.770966 46.533516,337.095459 
	C45.309689,334.385071 45.935158,332.693115 48.817039,331.739838 
	C51.660912,330.799072 54.446148,329.681030 57.624535,328.507507 
z"/>
<path fill="#000000" opacity="1.000000" stroke="none" 
	d="
M323.674011,143.604156 
	C318.808289,151.979965 313.994110,159.966202 309.527740,168.142410 
	C307.687164,171.511780 305.971558,172.230179 302.532959,170.214218 
	C295.324921,165.988373 293.954224,168.012848 299.331299,158.733261 
	C317.103882,128.061874 334.749847,97.316910 352.611023,66.697365 
	C354.829590,62.894070 354.319824,60.794071 350.529144,58.831779 
	C346.989746,56.999550 343.650391,54.778408 340.240997,52.698883 
	C338.980042,51.929760 337.341217,51.199322 338.167511,49.296497 
	C339.160980,47.008564 340.910156,48.073811 342.407532,48.686211 
	C350.579315,52.028328 358.481384,55.928799 366.288239,60.051296 
	C369.587555,61.793530 369.879364,63.579884 368.029999,66.749306 
	C354.778412,89.460182 341.676025,112.258125 328.534088,135.032959 
	C326.953735,137.771698 325.420624,140.537720 323.674011,143.604156 
z"/>
<path fill="#000000" opacity="1.000000" stroke="none" 
	d="
M168.080658,457.864929 
	C170.544601,459.311829 172.706909,460.559540 174.850174,461.839142 
	C175.954987,462.498749 176.645584,463.398926 175.960587,464.725739 
	C175.350067,465.908295 174.347366,466.431152 173.055176,465.890869 
	C163.680618,461.971283 154.395706,457.848145 145.744415,452.476501 
	C143.168961,450.877380 145.027908,448.954376 145.972733,447.314819 
	C159.439316,423.946228 172.939438,400.596985 186.417328,377.234924 
	C192.491089,366.706879 198.675781,356.238647 204.509216,345.578583 
	C206.423096,342.081146 208.228394,341.451263 211.470139,343.647400 
	C213.510971,345.029999 215.840485,345.986450 218.005722,347.115936 
	C218.567978,349.719849 216.805862,351.319946 215.776001,353.108124 
	C198.077423,383.838745 180.320740,414.535919 162.600204,445.253906 
	C158.680145,452.049194 158.722015,452.072205 165.233078,456.084137 
	C166.083710,456.608246 166.925354,457.146942 168.080658,457.864929 
z"/>
<path fill="#000000" opacity="1.000000" stroke="none" 
	d="
M358.840057,172.863770 
	C351.958160,178.674683 345.362244,184.272598 338.721313,189.816574 
	C332.221802,195.242523 331.829529,195.144714 326.681671,186.903320 
	C352.901672,164.860687 379.204590,142.748367 405.585632,120.570366 
	C403.193726,114.859314 400.113251,109.934845 396.807251,105.188782 
	C394.737305,102.217178 394.563141,100.273499 397.649658,97.724884 
	C407.907928,89.254364 407.852173,89.095566 417.251801,98.704247 
	C420.740234,102.270302 423.899750,106.157089 427.365753,109.746521 
	C429.695892,112.159599 429.219849,113.867989 426.809784,115.877640 
	C407.643585,131.859634 388.535645,147.911530 369.412628,163.945328 
	C365.970581,166.831375 362.541412,169.732819 358.840057,172.863770 
z"/>
<path fill="#000000" opacity="1.000000" stroke="none" 
	d="
M103.385017,421.536957 
	C97.217560,416.137726 92.174026,410.140045 86.814224,404.442047 
	C84.365875,401.839172 84.775673,400.132874 87.377769,397.958099 
	C117.524483,372.761780 147.594727,347.473999 177.726273,322.259460 
	C181.654037,318.972656 182.830627,319.598389 187.290863,327.065186 
	C178.880264,334.161285 170.404266,341.338440 161.900146,348.482086 
	C144.950562,362.720062 128.014008,376.973907 110.990349,391.122864 
	C108.894218,392.864990 108.548981,394.399719 109.916313,396.638275 
	C112.431664,400.756317 114.857292,404.929291 117.312172,409.084167 
	C117.902252,410.082886 119.138763,411.284332 118.923248,412.079681 
	C117.499527,417.333862 112.061783,418.842316 108.781754,422.423035 
	C106.967407,424.403687 105.190353,423.343719 103.385017,421.536957 
z"/>
</svg>