<svg version="1.1" id="Layer_1" xmlns="http://www.w3.org/2000/svg" xmlns:xlink="http://www.w3.org/1999/xlink" x="0px" y="0px"
	 width="100%" viewBox="0 0 400 400" enable-background="new 0 0 400 400" xml:space="preserve">
<path fill="#010101" opacity="1.000000" stroke="none" 
	d="
M220.000000,401.000000 
	C146.666672,401.000000 73.833336,401.000000 1.000000,401.000000 
	C1.000000,267.666656 1.000000,134.333328 1.000000,1.000000 
	C134.333328,1.000000 267.666656,1.000000 401.000000,1.000000 
	C401.000000,134.333328 401.000000,267.666656 401.000000,401.000000 
	C340.833344,401.000000 280.666656,401.000000 220.000000,401.000000 
M110.831978,200.819458 
	C119.685028,200.819458 128.538086,200.819458 137.391129,200.819458 
	C137.390106,200.267014 137.389099,199.714569 137.388077,199.162125 
	C128.247116,199.162125 119.106171,199.162125 109.121742,198.894043 
	C91.709518,198.894043 74.297302,198.894043 56.822353,198.894043 
	C56.822353,202.803635 56.822353,207.227356 56.822353,212.309341 
	C72.608536,212.309341 88.016647,212.309341 103.472313,212.309341 
	C104.128510,210.395752 104.563377,208.218857 105.590836,206.371521 
	C106.758919,204.271408 108.456573,202.465836 110.831978,200.819458 
M290.157288,201.153610 
	C281.641693,201.153610 273.126099,201.153610 264.610504,201.153610 
	C264.610901,201.712189 264.611267,202.270782 264.611633,202.829361 
	C273.419647,202.829361 282.227631,202.829361 291.903687,203.083542 
	C309.641418,203.083542 327.379150,203.083542 345.171997,203.083542 
	C345.171997,199.187805 345.171997,194.766266 345.171997,189.690628 
	C329.388641,189.690628 313.984741,189.690628 298.589691,189.690628 
	C297.557953,192.542099 296.782043,195.653732 295.298615,198.380417 
	C294.551331,199.753952 292.520416,200.429092 290.157288,201.153610 
M319.034515,266.408020 
	C321.769318,267.891266 324.504120,269.374512 327.517029,271.008606 
	C329.319275,267.283875 330.945740,263.922455 332.684448,260.329041 
	C313.733398,249.875259 295.179352,239.640457 276.828125,229.517532 
	C273.276459,232.633072 270.115051,235.406265 267.252960,237.916901 
	C283.803711,247.034592 301.088928,256.556885 319.034515,266.408020 
M96.666077,156.821945 
	C106.240105,162.062958 115.814133,167.303986 125.262520,172.476212 
	C128.545593,169.514679 131.515732,166.835449 134.618683,164.036407 
	C114.933121,153.180008 94.912254,142.138687 74.580490,130.925903 
	C72.780716,134.555023 71.113174,137.917496 69.280167,141.613602 
	C78.373619,146.639175 87.213623,151.524689 96.666077,156.821945 
M120.011848,140.485092 
	C126.719330,146.661011 133.426804,152.836929 139.954300,158.847122 
	C143.359573,156.801788 146.425095,154.960526 149.579544,153.065857 
	C131.454544,136.336685 113.314545,119.593666 95.000450,102.689957 
	C92.517273,105.571686 90.375938,108.056702 87.981918,110.834969 
	C98.554283,120.621704 109.023476,130.312943 120.011848,140.485092 
M291.379272,270.122223 
	C281.505188,261.054474 271.631104,251.986755 262.001556,243.143585 
	C258.541840,245.261978 255.562378,247.086334 252.469620,248.980042 
	C270.427521,265.544891 288.670380,282.372559 307.032501,299.310272 
	C309.572632,296.330505 311.678650,293.859955 313.974213,291.167053 
	C306.459412,284.174103 299.172516,277.393280 291.379272,270.122223 
M308.909180,216.742874 
	C302.387024,214.977203 295.864838,213.211533 289.767792,211.560959 
	C286.665894,215.576904 283.953644,219.088333 281.074524,222.815826 
	C300.741943,228.093781 320.500671,233.396240 340.570862,238.782272 
	C341.579437,234.163544 342.448669,230.183090 343.372009,225.954803 
	C331.795471,222.850174 320.752472,219.888626 308.909180,216.742874 
M85.024773,169.592590 
	C77.260620,167.497574 69.496468,165.402557 61.438305,163.228210 
	C60.421017,167.853165 59.546944,171.826996 58.618591,176.047607 
	C77.017952,180.988190 94.873741,185.782806 112.609642,190.545242 
	C115.235458,186.480713 117.547287,182.902206 120.107521,178.939194 
	C108.498116,175.860107 97.152534,172.850998 85.024773,169.592590 
M285.041718,311.406189 
	C272.163605,291.896362 259.285492,272.386505 246.305176,252.721848 
	C243.195618,254.255981 240.471313,255.600021 237.609238,257.012054 
	C252.017822,278.838287 266.104645,300.177063 280.358887,321.769531 
	C283.166687,319.776642 285.653229,318.011719 288.210907,316.196350 
	C287.061920,314.492584 286.231445,313.261200 285.041718,311.406189 
M155.169174,148.492325 
	C158.156998,147.542007 161.144821,146.591705 164.700104,145.460922 
	C150.086334,123.309669 135.951004,101.883652 121.658203,80.218910 
	C118.804810,82.243889 116.316345,84.009895 113.798286,85.796898 
	C127.697273,106.844353 141.240585,127.353188 155.169174,148.492325 
M135.571960,215.300690 
	C110.413292,220.991898 85.254623,226.683105 59.796085,232.442154 
	C61.305874,237.710922 62.652557,242.410507 64.056313,247.309265 
	C76.082985,244.609222 87.523430,242.040802 99.084633,239.445267 
	C99.384544,236.371750 99.937828,233.566452 99.861031,230.778488 
	C99.760399,227.125443 101.177444,225.635086 104.825676,224.919189 
	C115.403008,222.843582 125.895920,220.334457 136.407745,217.933212 
	C137.514389,217.680405 138.526672,217.014481 139.582748,216.540207 
	C139.509476,216.158707 139.436203,215.777206 139.362930,215.395706 
	C138.357101,215.310944 137.351273,215.226166 135.571960,215.300690 
M306.308105,161.848969 
	C305.094788,162.990692 303.331635,163.924026 302.800903,165.324432 
	C302.061005,167.276825 302.012726,169.586060 302.083527,171.728851 
	C302.190613,174.971848 300.861237,176.335785 297.648651,176.989960 
	C287.082245,179.141571 276.579132,181.606094 266.063385,184.001648 
	C264.809418,184.287323 263.627350,184.888718 262.411957,185.343765 
	C262.601440,186.005173 262.790955,186.666580 262.980469,187.327988 
	C289.251801,181.456848 315.523132,175.585709 342.216003,169.620361 
	C340.709290,164.387558 339.321777,159.568604 337.909943,154.665222 
	C327.144562,157.105209 317.124512,159.376266 306.308105,161.848969 
M230.745407,260.244873 
	C228.065186,260.547272 225.384979,260.849670 222.098175,261.220520 
	C231.273941,287.018585 240.190887,312.088989 249.157288,337.298401 
	C252.035492,336.153046 254.319138,335.244324 256.997253,334.178619 
	C248.271606,309.611938 239.624695,285.266876 230.745407,260.244873 
M172.521744,119.939468 
	C165.971741,101.574097 159.421753,83.208725 152.823563,64.708237 
	C149.970383,65.840927 147.686737,66.747505 144.988861,67.818535 
	C153.864639,92.780777 162.663254,117.526001 171.554916,142.532959 
	C174.429749,141.769073 176.899445,141.112839 179.668945,140.376923 
	C177.281219,133.466980 175.066971,127.059090 172.521744,119.939468 
M282.341125,160.861206 
	C298.314728,152.861298 314.288300,144.861404 330.584229,136.700073 
	C327.690491,131.651550 325.079071,127.095490 322.293884,122.236343 
	C314.467834,126.134026 307.085907,129.810532 299.495941,133.590637 
	C300.027466,136.520325 300.244873,139.361160 301.091522,142.000153 
	C302.357300,145.945709 301.018463,147.811935 297.343506,149.555038 
	C284.751343,155.527771 272.334320,161.872726 259.914490,168.201294 
	C258.720825,168.809540 257.972168,170.291214 257.016937,171.367416 
	C258.395325,171.342392 259.981262,171.757019 261.118103,171.220367 
	C268.012573,167.965714 274.804626,164.494080 282.341125,160.861206 
M84.269264,277.489594 
	C90.331291,274.459564 96.393318,271.429535 102.574501,268.339966 
	C102.025146,265.607727 101.785095,263.097870 100.996834,260.773956 
	C99.470963,256.275452 101.086075,254.068939 105.313034,252.095108 
	C117.791023,246.268387 130.037201,239.944580 142.362259,233.791626 
	C144.200623,232.873886 146.694794,232.073227 143.784836,229.211563 
	C119.711082,241.199768 95.718132,253.147720 71.388092,265.263550 
	C74.302437,270.341034 76.917259,274.896667 79.620117,279.605682 
	C81.264435,278.890381 82.460251,278.370178 84.269264,277.489594 
M214.977173,343.285339 
	C217.215286,343.709320 219.453400,344.133331 222.429703,344.697174 
	C219.624283,316.770874 216.931763,289.968475 214.220459,262.978973 
	C211.330826,263.521942 209.278091,263.907654 207.020844,264.331787 
	C209.679153,290.547699 212.309570,316.488678 214.977173,343.285339 
M183.690720,57.510708 
	C182.451645,57.780140 181.212555,58.049572 179.675766,58.383739 
	C182.387543,85.348076 185.071289,112.033646 187.778336,138.951004 
	C190.538513,138.473648 192.601929,138.116791 194.905197,137.718460 
	C194.579346,134.112625 194.301483,130.660477 193.950546,127.215775 
	C191.677124,104.900253 189.418182,82.583069 187.008514,60.282196 
	C186.894943,59.231247 185.394867,58.330112 183.690720,57.510708 
M133.987823,257.501740 
	C119.580170,269.751770 105.172508,282.001801 89.990135,294.910522 
	C94.655029,299.158905 98.910835,303.034729 103.277977,307.011932 
	C107.270088,303.600067 111.161758,300.274048 114.955391,297.031830 
	C112.686905,292.746643 110.611763,288.826660 108.488037,284.814911 
	C124.250183,271.406250 139.657959,258.299042 155.241409,245.042389 
	C154.066559,243.789261 153.241699,242.909439 152.344803,241.952774 
	C146.203964,247.148865 140.363373,252.090912 133.987823,257.501740 
M277.721008,136.208405 
	C288.871765,126.746086 300.022522,117.283768 312.048767,107.078529 
	C307.297424,103.087669 302.875916,99.373833 298.203735,95.449455 
	C294.762085,98.373589 290.773163,101.762688 287.043365,104.931610 
	C289.420227,109.438774 291.476715,113.338394 293.510712,117.195396 
	C277.638306,130.688370 262.331573,143.700516 246.783798,156.917526 
	C247.843582,158.102753 248.672058,159.029266 249.620316,160.089752 
	C258.931274,152.190033 268.064392,144.441223 277.721008,136.208405 
M249.313477,125.798294 
	C244.330322,132.777298 239.347168,139.756317 234.147797,147.038147 
	C235.925537,148.016068 237.150589,148.689972 238.562515,149.466675 
	C254.395523,127.515129 270.017303,105.856415 285.947357,83.770348 
	C280.244385,80.230713 275.076416,77.023132 269.718781,73.697838 
	C268.035706,76.081589 266.625946,78.078186 265.424072,79.780418 
	C268.877228,83.324974 271.984100,86.514038 275.260284,89.876907 
	C266.670013,101.792168 258.218018,113.515594 249.313477,125.798294 
M162.720825,262.216034 
	C164.325089,259.938965 165.929352,257.661926 167.709564,255.135132 
	C166.221024,254.141983 165.037262,253.352188 163.564529,252.369583 
	C147.739822,274.298859 132.100784,295.970856 116.051231,318.211700 
	C121.679413,321.709900 126.923370,324.969299 132.318848,328.322845 
	C134.064835,325.771332 135.426392,323.781647 136.507568,322.201660 
	C133.160202,318.360687 130.243073,315.013397 127.190460,311.510651 
	C138.754349,295.448700 150.512344,279.117157 162.720825,262.216034 
M231.496506,126.112343 
	C239.410660,106.523727 247.324829,86.935112 255.357788,67.052460 
	C248.537598,64.817810 242.580048,61.568726 235.457672,62.583862 
	C239.688950,64.645515 243.920227,66.707169 248.253845,68.818695 
	C238.563156,92.900864 229.076385,116.476234 219.504013,140.264343 
	C221.668701,141.055847 223.163528,141.602432 225.010437,142.277740 
	C227.143692,136.913284 229.152985,131.860565 231.496506,126.112343 
M163.897812,292.296875 
	C158.198898,306.380463 152.500000,320.464020 146.542618,335.186371 
	C153.300934,337.297302 159.611343,339.268372 165.921768,341.239410 
	C166.134628,340.632172 166.347488,340.024933 166.560349,339.417694 
	C162.358017,337.385773 158.155685,335.353851 153.729355,333.213623 
	C163.402084,309.192780 172.899307,285.607727 182.525131,261.703339 
	C180.360519,260.965332 178.730347,260.409546 176.988007,259.815491 
	C172.574646,270.698700 168.345444,281.127777 163.897812,292.296875 
M212.322784,79.771744 
	C209.636368,98.951721 206.949951,118.131699 204.214920,137.658844 
	C206.401642,137.820374 208.162689,137.950470 210.279068,138.106796 
	C214.094727,111.293228 217.869614,84.766159 221.676361,58.015278 
	C219.343506,57.733231 217.624939,57.525448 215.613678,57.282280 
	C214.540039,64.823853 213.537201,71.868065 212.322784,79.771744 
M194.788605,286.343445 
	C195.764481,279.142059 196.740341,271.940674 197.776962,264.291046 
	C195.578995,264.159851 193.719147,264.048859 191.709915,263.928955 
	C187.873566,290.907410 184.118256,317.315948 180.330124,343.955231 
	C182.558685,344.247528 184.295609,344.475342 186.363602,344.746582 
	C189.152390,325.279602 191.879272,306.244690 194.788605,286.343445 
z"/>
<path fill="#F6F6F6" opacity="1.000000" stroke="none" 
	d="
M318.704346,266.243591 
	C301.088928,256.556885 283.803711,247.034592 267.252960,237.916901 
	C270.115051,235.406265 273.276459,232.633072 276.828125,229.517532 
	C295.179352,239.640457 313.733398,249.875259 332.684448,260.329041 
	C330.945740,263.922455 329.319275,267.283875 327.517029,271.008606 
	C324.504120,269.374512 321.769318,267.891266 318.704346,266.243591 
z"/>
<path fill="#F6F6F6" opacity="1.000000" stroke="none" 
	d="
M96.359856,156.616058 
	C87.213623,151.524689 78.373619,146.639175 69.280167,141.613602 
	C71.113174,137.917496 72.780716,134.555023 74.580490,130.925903 
	C94.912254,142.138687 114.933121,153.180008 134.618683,164.036407 
	C131.515732,166.835449 128.545593,169.514679 125.262520,172.476212 
	C115.814133,167.303986 106.240105,162.062958 96.359856,156.616058 
z"/>
<path fill="#F6F6F6" opacity="1.000000" stroke="none" 
	d="
M119.752258,140.244629 
	C109.023476,130.312943 98.554283,120.621704 87.981918,110.834969 
	C90.375938,108.056702 92.517273,105.571686 95.000450,102.689957 
	C113.314545,119.593666 131.454544,136.336685 149.579544,153.065857 
	C146.425095,154.960526 143.359573,156.801788 139.954300,158.847122 
	C133.426804,152.836929 126.719330,146.661011 119.752258,140.244629 
z"/>
<path fill="#F6F6F6" opacity="1.000000" stroke="none" 
	d="
M291.632446,270.367340 
	C299.172516,277.393280 306.459412,284.174103 313.974213,291.167053 
	C311.678650,293.859955 309.572632,296.330505 307.032501,299.310272 
	C288.670380,282.372559 270.427521,265.544891 252.469620,248.980042 
	C255.562378,247.086334 258.541840,245.261978 262.001556,243.143585 
	C271.631104,251.986755 281.505188,261.054474 291.632446,270.367340 
z"/>
<path fill="#F8F8F8" opacity="1.000000" stroke="none" 
	d="
M309.309326,216.834976 
	C320.752472,219.888626 331.795471,222.850174 343.372009,225.954803 
	C342.448669,230.183090 341.579437,234.163544 340.570862,238.782272 
	C320.500671,233.396240 300.741943,228.093781 281.074524,222.815826 
	C283.953644,219.088333 286.665894,215.576904 289.767792,211.560959 
	C295.864838,213.211533 302.387024,214.977203 309.309326,216.834976 
z"/>
<path fill="#F8F8F8" opacity="1.000000" stroke="none" 
	d="
M85.415863,169.717224 
	C97.152534,172.850998 108.498116,175.860107 120.107521,178.939194 
	C117.547287,182.902206 115.235458,186.480713 112.609642,190.545242 
	C94.873741,185.782806 77.017952,180.988190 58.618591,176.047607 
	C59.546944,171.826996 60.421017,167.853165 61.438305,163.228210 
	C69.496468,165.402557 77.260620,167.497574 85.415863,169.717224 
z"/>
<path fill="#F5F5F5" opacity="1.000000" stroke="none" 
	d="
M285.221375,311.717987 
	C286.231445,313.261200 287.061920,314.492584 288.210907,316.196350 
	C285.653229,318.011719 283.166687,319.776642 280.358887,321.769531 
	C266.104645,300.177063 252.017822,278.838287 237.609238,257.012054 
	C240.471313,255.600021 243.195618,254.255981 246.305176,252.721848 
	C259.285492,272.386505 272.163605,291.896362 285.221375,311.717987 
z"/>
<path fill="#F6F6F6" opacity="1.000000" stroke="none" 
	d="
M154.976532,148.177185 
	C141.240585,127.353188 127.697273,106.844353 113.798286,85.796898 
	C116.316345,84.009895 118.804810,82.243889 121.658203,80.218910 
	C135.951004,101.883652 150.086334,123.309669 164.700104,145.460922 
	C161.144821,146.591705 158.156998,147.542007 154.976532,148.177185 
z"/>
<path fill="#F5F5F5" opacity="1.000000" stroke="none" 
	d="
M135.958710,215.221039 
	C137.351273,215.226166 138.357101,215.310944 139.362930,215.395706 
	C139.436203,215.777206 139.509476,216.158707 139.582748,216.540207 
	C138.526672,217.014481 137.514389,217.680405 136.407745,217.933212 
	C125.895920,220.334457 115.403008,222.843582 104.825676,224.919189 
	C101.177444,225.635086 99.760399,227.125443 99.861031,230.778488 
	C99.937828,233.566452 99.384544,236.371750 99.084633,239.445267 
	C87.523430,242.040802 76.082985,244.609222 64.056313,247.309265 
	C62.652557,242.410507 61.305874,237.710922 59.796085,232.442154 
	C85.254623,226.683105 110.413292,220.991898 135.958710,215.221039 
z"/>
<path fill="#F5F5F5" opacity="1.000000" stroke="none" 
	d="
M306.706299,161.748138 
	C317.124512,159.376266 327.144562,157.105209 337.909943,154.665222 
	C339.321777,159.568604 340.709290,164.387558 342.216003,169.620361 
	C315.523132,175.585709 289.251801,181.456848 262.980469,187.327988 
	C262.790955,186.666580 262.601440,186.005173 262.411957,185.343765 
	C263.627350,184.888718 264.809418,184.287323 266.063385,184.001648 
	C276.579132,181.606094 287.082245,179.141571 297.648651,176.989960 
	C300.861237,176.335785 302.190613,174.971848 302.083527,171.728851 
	C302.012726,169.586060 302.061005,167.276825 302.800903,165.324432 
	C303.331635,163.924026 305.094788,162.990692 306.706299,161.748138 
z"/>
<path fill="#F9F9F9" opacity="1.000000" stroke="none" 
	d="
M291.069946,201.420044 
	C292.520416,200.429092 294.551331,199.753952 295.298615,198.380417 
	C296.782043,195.653732 297.557953,192.542099 298.589691,189.690628 
	C313.984741,189.690628 329.388641,189.690628 345.171997,189.690628 
	C345.171997,194.766266 345.171997,199.187805 345.171997,203.083542 
	C327.379150,203.083542 309.641418,203.083542 291.515808,202.721741 
	C291.226227,202.039383 291.206909,201.726089 291.069946,201.420044 
z"/>
<path fill="#F8F8F8" opacity="1.000000" stroke="none" 
	d="
M109.924026,200.532227 
	C108.456573,202.465836 106.758919,204.271408 105.590836,206.371521 
	C104.563377,208.218857 104.128510,210.395752 103.472313,212.309341 
	C88.016647,212.309341 72.608536,212.309341 56.822353,212.309341 
	C56.822353,207.227356 56.822353,202.803635 56.822353,198.894043 
	C74.297302,198.894043 91.709518,198.894043 109.490784,199.255859 
	C109.753654,199.931458 109.775055,200.236313 109.924026,200.532227 
z"/>
<path fill="#F5F5F5" opacity="1.000000" stroke="none" 
	d="
M230.861588,260.583374 
	C239.624695,285.266876 248.271606,309.611938 256.997253,334.178619 
	C254.319138,335.244324 252.035492,336.153046 249.157288,337.298401 
	C240.190887,312.088989 231.273941,287.018585 222.098175,261.220520 
	C225.384979,260.849670 228.065186,260.547272 230.861588,260.583374 
z"/>
<path fill="#F5F5F5" opacity="1.000000" stroke="none" 
	d="
M172.687225,120.295334 
	C175.066971,127.059090 177.281219,133.466980 179.668945,140.376923 
	C176.899445,141.112839 174.429749,141.769073 171.554916,142.532959 
	C162.663254,117.526001 153.864639,92.780777 144.988861,67.818535 
	C147.686737,66.747505 149.970383,65.840927 152.823563,64.708237 
	C159.421753,83.208725 165.971741,101.574097 172.687225,120.295334 
z"/>
<path fill="#F3F3F3" opacity="1.000000" stroke="none" 
	d="
M281.986023,160.978073 
	C274.804626,164.494080 268.012573,167.965714 261.118103,171.220367 
	C259.981262,171.757019 258.395325,171.342392 257.016937,171.367416 
	C257.972168,170.291214 258.720825,168.809540 259.914490,168.201294 
	C272.334320,161.872726 284.751343,155.527771 297.343506,149.555038 
	C301.018463,147.811935 302.357300,145.945709 301.091522,142.000153 
	C300.244873,139.361160 300.027466,136.520325 299.495941,133.590637 
	C307.085907,129.810532 314.467834,126.134026 322.293884,122.236343 
	C325.079071,127.095490 327.690491,131.651550 330.584229,136.700073 
	C314.288300,144.861404 298.314728,152.861298 281.986023,160.978073 
z"/>
<path fill="#F3F3F3" opacity="1.000000" stroke="none" 
	d="
M83.962669,277.669800 
	C82.460251,278.370178 81.264435,278.890381 79.620117,279.605682 
	C76.917259,274.896667 74.302437,270.341034 71.388092,265.263550 
	C95.718132,253.147720 119.711082,241.199768 143.784836,229.211563 
	C146.694794,232.073227 144.200623,232.873886 142.362259,233.791626 
	C130.037201,239.944580 117.791023,246.268387 105.313034,252.095108 
	C101.086075,254.068939 99.470963,256.275452 100.996834,260.773956 
	C101.785095,263.097870 102.025146,265.607727 102.574501,268.339966 
	C96.393318,271.429535 90.331291,274.459564 83.962669,277.669800 
z"/>
<path fill="#F4F4F4" opacity="1.000000" stroke="none" 
	d="
M214.958588,342.857483 
	C212.309570,316.488678 209.679153,290.547699 207.020844,264.331787 
	C209.278091,263.907654 211.330826,263.521942 214.220459,262.978973 
	C216.931763,289.968475 219.624283,316.770874 222.429703,344.697174 
	C219.453400,344.133331 217.215286,343.709320 214.958588,342.857483 
z"/>
<path fill="#F4F4F4" opacity="1.000000" stroke="none" 
	d="
M184.115601,57.434959 
	C185.394867,58.330112 186.894943,59.231247 187.008514,60.282196 
	C189.418182,82.583069 191.677124,104.900253 193.950546,127.215775 
	C194.301483,130.660477 194.579346,134.112625 194.905197,137.718460 
	C192.601929,138.116791 190.538513,138.473648 187.778336,138.951004 
	C185.071289,112.033646 182.387543,85.348076 179.675766,58.383739 
	C181.212555,58.049572 182.451645,57.780140 184.115601,57.434959 
z"/>
<path fill="#F3F3F3" opacity="1.000000" stroke="none" 
	d="
M134.255310,257.267334 
	C140.363373,252.090912 146.203964,247.148865 152.344803,241.952774 
	C153.241699,242.909439 154.066559,243.789261 155.241409,245.042389 
	C139.657959,258.299042 124.250183,271.406250 108.488037,284.814911 
	C110.611763,288.826660 112.686905,292.746643 114.955391,297.031830 
	C111.161758,300.274048 107.270088,303.600067 103.277977,307.011932 
	C98.910835,303.034729 94.655029,299.158905 89.990135,294.910522 
	C105.172508,282.001801 119.580170,269.751770 134.255310,257.267334 
z"/>
<path fill="#F3F3F3" opacity="1.000000" stroke="none" 
	d="
M277.459259,136.450409 
	C268.064392,144.441223 258.931274,152.190033 249.620316,160.089752 
	C248.672058,159.029266 247.843582,158.102753 246.783798,156.917526 
	C262.331573,143.700516 277.638306,130.688370 293.510712,117.195396 
	C291.476715,113.338394 289.420227,109.438774 287.043365,104.931610 
	C290.773163,101.762688 294.762085,98.373589 298.203735,95.449455 
	C302.875916,99.373833 307.297424,103.087669 312.048767,107.078529 
	C300.022522,117.283768 288.871765,126.746086 277.459259,136.450409 
z"/>
<path fill="#F1F1F1" opacity="1.000000" stroke="none" 
	d="
M249.539764,125.518661 
	C258.218018,113.515594 266.670013,101.792168 275.260284,89.876907 
	C271.984100,86.514038 268.877228,83.324974 265.424072,79.780418 
	C266.625946,78.078186 268.035706,76.081589 269.718781,73.697838 
	C275.076416,77.023132 280.244385,80.230713 285.947357,83.770348 
	C270.017303,105.856415 254.395523,127.515129 238.562515,149.466675 
	C237.150589,148.689972 235.925537,148.016068 234.147797,147.038147 
	C239.347168,139.756317 244.330322,132.777298 249.539764,125.518661 
z"/>
<path fill="#F1F1F1" opacity="1.000000" stroke="none" 
	d="
M162.495590,262.500793 
	C150.512344,279.117157 138.754349,295.448700 127.190460,311.510651 
	C130.243073,315.013397 133.160202,318.360687 136.507568,322.201660 
	C135.426392,323.781647 134.064835,325.771332 132.318848,328.322845 
	C126.923370,324.969299 121.679413,321.709900 116.051231,318.211700 
	C132.100784,295.970856 147.739822,274.298859 163.564529,252.369583 
	C165.037262,253.352188 166.221024,254.141983 167.709564,255.135132 
	C165.929352,257.661926 164.325089,259.938965 162.495590,262.500793 
z"/>
<path fill="#F1F1F1" opacity="1.000000" stroke="none" 
	d="
M231.329391,126.460098 
	C229.152985,131.860565 227.143692,136.913284 225.010437,142.277740 
	C223.163528,141.602432 221.668701,141.055847 219.504013,140.264343 
	C229.076385,116.476234 238.563156,92.900864 248.253845,68.818695 
	C243.920227,66.707169 239.688950,64.645515 235.457672,62.583862 
	C242.580048,61.568726 248.537598,64.817810 255.357788,67.052460 
	C247.324829,86.935112 239.410660,106.523727 231.329391,126.460098 
z"/>
<path fill="#F1F1F1" opacity="1.000000" stroke="none" 
	d="
M164.007019,291.926849 
	C168.345444,281.127777 172.574646,270.698700 176.988007,259.815491 
	C178.730347,260.409546 180.360519,260.965332 182.525131,261.703339 
	C172.899307,285.607727 163.402084,309.192780 153.729355,333.213623 
	C158.155685,335.353851 162.358017,337.385773 166.560349,339.417694 
	C166.347488,340.024933 166.134628,340.632172 165.921768,341.239410 
	C159.611343,339.268372 153.300934,337.297302 146.542618,335.186371 
	C152.500000,320.464020 158.198898,306.380463 164.007019,291.926849 
z"/>
<path fill="#F2F2F2" opacity="1.000000" stroke="none" 
	d="
M212.428574,79.342010 
	C213.537201,71.868065 214.540039,64.823853 215.613678,57.282280 
	C217.624939,57.525448 219.343506,57.733231 221.676361,58.015278 
	C217.869614,84.766159 214.094727,111.293228 210.279068,138.106796 
	C208.162689,137.950470 206.401642,137.820374 204.214920,137.658844 
	C206.949951,118.131699 209.636368,98.951721 212.428574,79.342010 
z"/>
<path fill="#F2F2F2" opacity="1.000000" stroke="none" 
	d="
M194.697388,286.776611 
	C191.879272,306.244690 189.152390,325.279602 186.363602,344.746582 
	C184.295609,344.475342 182.558685,344.247528 180.330124,343.955231 
	C184.118256,317.315948 187.873566,290.907410 191.709915,263.928955 
	C193.719147,264.048859 195.578995,264.159851 197.776962,264.291046 
	C196.740341,271.940674 195.764481,279.142059 194.697388,286.776611 
z"/>
<path fill="#D3D3D3" opacity="1.000000" stroke="none" 
	d="
M110.378006,200.675842 
	C109.775055,200.236313 109.753654,199.931458 109.912529,199.389893 
	C119.106171,199.162125 128.247116,199.162125 137.388077,199.162125 
	C137.389099,199.714569 137.390106,200.267014 137.391129,200.819458 
	C128.538086,200.819458 119.685028,200.819458 110.378006,200.675842 
z"/>
<path fill="#D3D3D3" opacity="1.000000" stroke="none" 
	d="
M290.613617,201.286835 
	C291.206909,201.726089 291.226227,202.039383 291.081787,202.594666 
	C282.227631,202.829361 273.419647,202.829361 264.611633,202.829361 
	C264.611267,202.270782 264.610901,201.712189 264.610504,201.153610 
	C273.126099,201.153610 281.641693,201.153610 290.613617,201.286835 
z"/>
</svg>